HIERARCHY
ROOT Hips
{
	OFFSET 0.000000 0.000000 0.000000 
	CHANNELS 6 Xposition Yposition Zposition Yrotation Zrotation Xrotation 
	JOINT Lumbar
	{
		OFFSET 0.000000 0.000000 0.000000 
		CHANNELS 3 Zrotation Xrotation Yrotation
		JOINT Neck
		{
			OFFSET 0.000000 0.445665 0.000000 
			CHANNELS 3 Zrotation Xrotation Yrotation
			End Site
			{
				OFFSET 0.000000 0.227535 0.000000 
			}
		}
		JOINT RightShoulder
		{
			OFFSET 0.019635 0.377685 0.194865 
			CHANNELS 3 Zrotation Xrotation Yrotation
			JOINT RightElbow
			{
				OFFSET 0.000000 -0.243375 0.000000 
				CHANNELS 2 Zrotation Yrotation
				JOINT RightWrist
				{
					OFFSET 0.000000 -0.264825 0.000000 
					CHANNELS 2 Zrotation Xrotation
					End Site
					{
						OFFSET 0.006600 -0.176220 0.000990 
					}
				}
			}
		}
		JOINT LeftShoulder
		{
			OFFSET 0.019635 0.377685 -0.194865 
			CHANNELS 3 Zrotation Xrotation Yrotation
			JOINT LeftElbow
			{
				OFFSET 0.000000 -0.243375 0.000000 
				CHANNELS 2 Zrotation Yrotation
				JOINT LeftWrist
				{
					OFFSET 0.000000 -0.264825 0.000000 
					CHANNELS 2 Zrotation Xrotation
					End Site
					{
						OFFSET 0.006600 -0.176220 -0.000990 
					}
				}
			}
		}
	}
	JOINT RightHip
	{
		OFFSET 0.052140 -0.069960 0.075570 
		CHANNELS 3 Zrotation Xrotation Yrotation
		JOINT RightKnee
		{
			OFFSET 0.000000 -0.402270 0.000000 
			CHANNELS 1 Zrotation
			JOINT RightAnkle
			{
				OFFSET 0.000000 -0.404085 0.000000 
				CHANNELS 3 Zrotation Xrotation Yrotation
				End Site
				{
					OFFSET 0.204105 -0.089430 0.008415 
				}
			}
		}
	}
	JOINT LeftHip
	{
		OFFSET 0.052140 -0.069960 -0.075570 
		CHANNELS 3 Zrotation Xrotation Yrotation
		JOINT LeftKnee
		{
			OFFSET 0.000000 -0.402270 0.000000 
			CHANNELS 1 Zrotation
			JOINT LeftAnkle
			{
				OFFSET 0.000000 -0.404085 0.000000 
				CHANNELS 3 Zrotation Xrotation Yrotation
				End Site
				{
					OFFSET 0.204105 -0.089430 -0.008415 
				}
			}
		}
	}
}
MOTION
Frames: 22
Frame Time: 0.02
1.62778 -0.27778 0.84928 534.27317 -2.35469 0.10022 1.29427 4.40035 -10.72834 0.88061 5.03756 -0.83079 28.54451 10.47226 36.53947 124.94008 95.87619 -21.37138 -6.40533 20.27672 -2.01216 -34.25009 50.52987 -89.32668 -7.70687 8.51941 68.88685 1.25794 -11.78383 -50.80091 -15.08364 -0.52053 -1.11689 89.62353 -9.23576 33.14338 -72.30012 -21.22221 2.73222 2.74851
1.62914 -0.27864 0.84896 534.29362 -1.62771 0.14248 0.80322 4.27766 -10.69647 0.80484 5.08456 -0.83079 27.99024 10.4186 37.37155 125.63341 94.72367 -19.34351 -6.5589 20.65101 -2.87371 -33.8624 49.14127 -89.29737 -7.43577 7.78995 68.12635 1.09663 -12.0961 -50.67425 -15.16264 -0.50336 -1.11117 88.84988 -9.27593 33.13844 -71.95835 -21.19055 2.73488 2.74863
1.63061 -0.27957 0.84859 534.31767 -0.87208 0.16791 0.271 4.13941 -10.56821 0.66205 5.34548 -0.83079 27.37474 10.29733 38.09589 126.30455 92.95737 -16.60859 -6.70757 20.84216 -3.64284 -33.4252 48.39747 -88.75347 -6.9602 6.82314 67.30608 0.85013 -12.632 -50.52089 -15.24979 -0.47231 -1.09892 88.03384 -9.33084 33.14731 -71.57883 -21.15478 2.737 2.74821
1.63203 -0.28047 0.84825 534.34074 -0.13346 0.19982 -0.23978 4.00523 -10.47624 0.55164 5.53456 -0.83079 26.7978 10.19875 38.85095 126.9837 91.52917 -14.23243 -6.85126 21.1199 -4.44423 -33.02194 47.36452 -88.42605 -6.58401 5.98543 66.52163 0.65054 -13.04666 -50.38206 -15.3335 -0.44871 -1.09022 87.2476 -9.37786 33.14938 -71.22079 -21.12181 2.73935 2.74806
1.63344 -0.28138 0.84787 534.36036 0.62317 0.23741 -0.76365 3.88277 -10.4151 0.43178 5.61704 -0.83079 26.17726 10.13109 39.68857 127.67128 89.85379 -11.68643 -7.02355 21.37899 -5.28999 -32.56205 46.30818 -88.17982 -6.17949 5.05351 65.7004 0.41765 -13.54102 -50.23315 -15.41645 -0.42052 -1.07919 86.41675 -9.42995 33.15334 -70.84371 -21.08504 2.74175 2.74779
1.63489 -0.28229 0.84757 534.38875 1.34857 0.25845 -1.26901 3.73296 -10.26765 0.31636 5.97181 -0.83079 25.63316 9.98461 40.3262 128.33556 88.53619 -9.33134 -7.13589 21.63403 -6.01924 -32.21256 45.45744 -87.64462 -5.78624 4.26296 64.94149 0.23343 -13.92362 -50.09882 -15.50261 -0.39847 -1.0714 85.6683 -9.47493 33.15704 -70.49798 -21.05502 2.74391 2.74762
1.63645 -0.28323 0.84754 534.43449 1.98131 0.2432 -1.71813 3.50676 -9.89995 0.22757 7.03037 -0.83079 25.30528 9.63108 40.44117 128.9478 88.48811 -7.67094 -7.08278 21.93639 -6.46012 -32.16728 45.00418 -86.37019 -5.46913 3.92385 64.37159 0.20395 -13.94419 -50.01194 -15.59765 -0.39697 -1.07432 85.16445 -9.49711 33.15324 -70.24375 -21.04648 2.74568 2.74805
1.63803 -0.28417 0.84758 534.48994 2.58112 0.21084 -2.14599 3.25462 -9.44995 0.14617 8.35456 -0.83079 25.05818 9.20205 40.35704 129.53598 88.80097 -6.23058 -6.96995 22.23927 -6.7846 -32.23774 44.73875 -84.83284 -5.17153 3.73529 63.86621 0.22623 -13.84517 -49.94052 -15.69518 -0.40203 -1.08069 84.74407 -9.51157 33.14924 -70.02331 -21.04457 2.7472 2.74857
1.63956 -0.28509 0.84757 534.54507 3.19575 0.18277 -2.58034 3.01736 -9.04109 0.06274 9.5546 -0.83079 24.77977 8.81179 40.36149 130.13108 88.86001 -4.69355 -6.88545 22.53375 -7.15502 -32.26522 44.39636 -83.45845 -4.86827 3.47664 63.32965 0.22504 -13.80007 -49.86164 -15.79028 -0.40389 -1.08535 84.28092 -9.52927 33.14775 -69.79013 -21.03836 2.74871 2.74891
1.64127 -0.28608 0.84765 534.58359 3.81297 0.1688 -3.03005 2.76609 -8.61244 -0.02905 10.7774 -0.83079 24.47529 8.40014 40.37119 130.74326 89.26453 -3.11395 -6.79575 22.85614 -7.55167 -32.25221 44.04091 -81.88453 -4.544 3.21694 62.79832 0.22097 -13.76299 -49.78375 -15.89133 -0.40621 -1.09038 83.83576 -9.54857 33.137 -69.54417 -21.03725 2.75066 2.74978
1.64261 -0.28693 0.84756 534.65826 4.41542 0.12167 -3.44154 2.53857 -8.20754 -0.10031 12.01206 -0.83079 24.24658 8.01622 40.32294 131.3133 89.05829 -1.68909 -6.70274 23.12302 -7.8672 -32.34923 43.74889 -80.66828 -4.2712 2.99797 62.27288 0.23593 -13.67982 -49.7077 -15.98025 -0.40931 -1.09554 83.37468 -9.56258 33.14474 -69.33384 -21.02741 2.75171 2.74962
1.64292 -0.28739 0.84691 534.83622 4.99475 -0.0132 -3.75767 2.37873 -7.88202 -0.1202 13.22165 -0.83079 24.19475 7.72629 40.17327 131.78239 86.94979 -0.6024 -6.61575 23.23662 -7.98741 -32.7433 43.58376 -80.52491 -4.13347 2.85896 61.74304 0.29438 -13.48092 -49.63427 -16.03709 -0.41291 -1.10028 82.83986 -9.5631 33.20861 -69.20953 -20.98971 2.74988 2.7462
1.64286 -0.2877 0.84609 535.04904 5.55815 -0.18066 -4.03481 2.24466 -7.58509 -0.11866 14.431 -0.83079 24.21904 7.46773 39.97096 132.208 84.24024 0.32611 -6.5275 23.29523 -8.03026 -33.24031 43.47338 -80.74953 -4.04838 2.75628 61.21848 0.36996 -13.2418 -49.56214 -16.08127 -0.41716 -1.10504 82.28838 -9.55865 33.29019 -69.12081 -20.94354 2.74725 2.74184
1.64298 -0.28807 0.84539 535.24213 6.12272 -0.33297 -4.3265 2.10152 -7.27945 -0.12427 15.63546 -0.83079 24.21698 7.19543 39.78657 132.6477 81.8936 1.30015 -6.43937 23.37992 -8.10905 -33.67633 43.33595 -80.79414 -3.94172 2.63513 60.69461 0.43575 -13.03176 -49.48862 -16.12983 -0.42123 -1.10977 81.75052 -9.55685 33.36019 -69.01875 -20.90254 2.74527 2.73816
1.64306 -0.28846 0.84451 535.45225 6.71286 -0.48753 -4.63139 1.94592 -6.95204 -0.14063 16.87292 -0.83079 24.18281 6.91691 39.61991 133.11144 79.18362 2.37771 -6.35069 23.46 -8.18105 -34.17643 43.21383 -80.88188 -3.82556 2.52676 60.15851 0.51171 -12.77269 -49.4187 -16.18409 -0.42505 -1.11473 81.18887 -9.55302 33.44474 -68.9061 -20.85574 2.74205 2.73335
1.64314 -0.28878 0.84397 535.63467 7.24505 -0.64466 -4.8991 1.82322 -6.67879 -0.12955 18.03495 -0.83079 24.23267 6.66147 39.40716 133.51387 77.07877 3.20554 -6.26411 23.5365 -8.24954 -34.56592 43.07129 -80.97228 -3.7416 2.39922 59.65007 0.56994 -12.60696 -49.34173 -16.22366 -0.42943 -1.11916 80.67316 -9.55247 33.50367 -68.82327 -20.8195 2.74129 2.73076
1.6433 -0.28897 0.84436 535.7355 7.63284 -0.80307 -5.07974 1.78114 -6.54035 -0.04881 19.01465 -0.83079 24.49405 6.44835 39.07474 133.76851 76.82846 3.37641 -6.17998 23.61804 -8.33491 -34.62523 42.84852 -80.96834 -3.73265 2.20327 59.20098 0.57466 -12.71577 -49.242 -16.22375 -0.43545 -1.12221 80.27539 -9.56126 33.48338 -68.81601 -20.81134 2.74742 2.73418
1.64349 -0.28911 0.8451 535.80668 7.96102 -0.96255 -5.2234 1.77208 -6.45718 0.05865 19.91258 -0.83079 24.83682 6.26031 38.69965 133.96117 77.19927 3.30364 -6.09913 23.69759 -8.41859 -34.56916 42.60414 -80.95782 -3.75441 1.98736 58.78191 0.56086 -12.91917 -49.13553 -16.2098 -0.44194 -1.1247 79.92612 -9.57378 33.43754 -68.8369 -20.816 2.75634 2.74024
1.64369 -0.28928 0.84571 535.88899 8.30874 -1.11988 -5.37995 1.75073 -6.35437 0.15476 20.82919 -0.83079 25.14382 6.07016 38.34869 134.17505 77.2601 3.34734 -6.01934 23.77711 -8.49868 -34.56487 42.37559 -80.95949 -3.7627 1.78405 58.35939 0.55538 -13.07535 -49.03406 -16.20362 -0.44803 -1.12738 79.56315 -9.58517 33.406 -68.8436 -20.8151 2.76375 2.74496
1.64378 -0.28943 0.8462 535.9819 8.68701 -1.28493 -5.55112 1.71913 -6.22987 0.24941 21.82264 -0.83079 25.45049 5.84184 37.97616 134.41623 77.41742 3.36086 -5.92817 23.85873 -8.59448 -34.56644 42.12409 -80.93549 -3.7708 1.56686 57.89507 0.55052 -13.24805 -48.92469 -16.19134 -0.45493 -1.13031 79.16573 -9.5938 33.3634 -68.85789 -20.80722 2.77112 2.74902
1.6441 -0.28959 0.84702 536.04591 8.98862 -1.43428 -5.68426 1.71598 -6.16268 0.35174 22.6383 -0.83079 25.77353 5.69857 37.63863 134.58702 77.52872 3.3818 -5.86217 23.93614 -8.65809 -34.52775 41.91404 -80.95798 -3.7859 1.37378 57.52358 0.54025 -13.4092 -48.82987 -16.18836 -0.46027 -1.13262 78.85019 -9.60937 33.33793 -68.86207 -20.82401 2.78055 2.75664
1.64505 -0.28981 0.84874 536.03132 9.08505 -1.53511 -5.71553 1.78661 -6.2459 0.48085 22.96714 -0.83079 26.14448 5.78377 37.41329 134.57341 77.36778 3.4802 -5.85883 24.00328 -8.63432 -34.39929 41.82745 -81.11484 -3.81245 1.24809 57.41248 0.51527 -13.51643 -48.77949 -16.21661 -0.46084 -1.13314 78.76307 -9.64125 33.36268 -68.83544 -20.84145 2.78294 2.75913
